<svg xmlns="http://www.w3.org/2000/svg" viewBox="0 0 135.79 68.98"><defs><style>.cls-1{fill:none;stroke:#e6e6e6;stroke-miterlimit:10;stroke-width:2px;}</style></defs><title>Alexa</title><g id="Layer_2" data-name="Layer 2"><g id="Layer_1-2" data-name="Layer 1"><g id="Alexa"><ellipse id="Ellipse_27-2" data-name="Ellipse 27-2" class="cls-1" cx="68.11" cy="19.64" rx="66.48" ry="18.64"/><path id="Path_40-2" data-name="Path 40-2" class="cls-1" d="M1.64,19.64A47,47,0,0,0,11.68,57h0C22.66,65.09,47,68.33,70.54,68s46.06-4.44,53-10.92c13.74-12.92,11.08-30.23,11.08-37.39"/><g id="Ellipse_28" data-name="Ellipse 28"><ellipse class="cls-1" cx="68.11" cy="11.46" rx="5.24" ry="3.27"/><ellipse class="cls-1" cx="68.11" cy="11.46" rx="4.83" ry="2.94"/></g><g id="Ellipse_28-2" data-name="Ellipse 28-2"><ellipse class="cls-1" cx="39.1" cy="19.97" rx="5.24" ry="3.27"/><ellipse class="cls-1" cx="39.1" cy="19.97" rx="4.83" ry="2.94"/></g><g id="Ellipse_28-3" data-name="Ellipse 28-3"><ellipse class="cls-1" cx="68.11" cy="31.08" rx="5.24" ry="3.27"/><ellipse class="cls-1" cx="68.11" cy="31.08" rx="4.83" ry="2.94"/></g><g id="Ellipse_28-4" data-name="Ellipse 28-4"><ellipse class="cls-1" cx="97.11" cy="19.97" rx="5.24" ry="3.27"/><ellipse class="cls-1" cx="97.11" cy="19.97" rx="4.83" ry="2.94"/></g><line id="Line_15" data-name="Line 15" class="cls-1" x1="66.78" y1="8.94" x2="66.78" y2="13.41"/><line id="Line_16" data-name="Line 16" class="cls-1" x1="72.17" y1="11.18" x2="64.09" y2="11.18"/><line id="Line_17" data-name="Line 17" class="cls-1" x1="72.17" y1="31.27" x2="64.09" y2="31.27"/><g id="Ellipse_29" data-name="Ellipse 29"><ellipse class="cls-1" cx="97.11" cy="19.97" rx="2.01" ry="1.31"/><path class="cls-1" d="M96.42,19.64v0Z"/></g><g id="Ellipse_30" data-name="Ellipse 30"><ellipse class="cls-1" cx="38.69" cy="19.97" rx="1.61" ry="1.31"/><ellipse class="cls-1" cx="38.69" cy="19.97" rx="1.21" ry="0.98"/></g><line id="Line_18" data-name="Line 18" class="cls-1" x1="41.51" y1="18.33" x2="35.87" y2="21.6"/></g></g></g></svg>