<svg xmlns="http://www.w3.org/2000/svg" viewBox="0 0 128.01 121.23"><defs><style>.cls-1{fill:none;stroke:#e6e6e6;stroke-miterlimit:10;stroke-width:2px;}</style></defs><title>Android</title><g id="Layer_2" data-name="Layer 2"><g id="Layer_1-2" data-name="Layer 1"><g id="Android_Small" data-name="Android Small"><g id="Intersection_1" data-name="Intersection 1"><path class="cls-1" d="M33.25,57.75c-5.94-17,1.48-34.57,18-40.61S87.69,18.63,98,34.1Z"/><path class="cls-1" d="M91.11,32.35C81.43,21,65.81,16.07,53.05,20.74S33.67,38.5,36.51,52.3l54.6-19.95M98,34.1,33.25,57.75c-5.94-17,1.48-34.57,18-40.61S87.69,18.63,98,34.1Z"/></g><g id="Rectangle_17" data-name="Rectangle 17"><path class="cls-1" d="M34,59.29,98.93,35.56h0l14.61,29.3c4.25,8.52-.51,18.42-10.63,22.12L74.63,97.32c-10.12,3.69-21.76-.21-26-8.73L34,59.29Z"/><path class="cls-1" d="M39.19,59.53,95.56,38.92a2.47,2.47,0,0,1,3,1h0l12.81,25.7c3.75,7.53-.45,16.27-9.38,19.54h0L73.73,95.52c-8.93,3.26-19.22-.19-23-7.71L38,62.11A1.88,1.88,0,0,1,39.19,59.53Z"/></g><g id="Rectangle_18" data-name="Rectangle 18"><path class="cls-1" d="M25.47,62.42h0c4.05-1.48,8.7.08,10.4,3.49l8.2,16.45c1.7,3.4-.2,7.36-4.25,8.84h0c-4,1.48-8.7-.08-10.4-3.49l-8.2-16.45C19.52,67.86,21.43,63.9,25.47,62.42Z"/><path class="cls-1" d="M26.37,64.22h0c2.86-1,6.16,0,7.37,2.47l8.2,16.45c1.2,2.41-.15,5.22-3,6.26h0c-2.87,1-6.17-.06-7.37-2.47l-8.2-16.45C22.16,68.07,23.5,65.26,26.37,64.22Z"/></g><g id="Rectangle_19" data-name="Rectangle 19"><path class="cls-1" d="M107.58,32.4h0c4.21-1.54,9.07.09,10.83,3.64l8,15.93c1.77,3.55-.21,7.68-4.43,9.22h0c-4.21,1.54-9.06-.09-10.83-3.64l-7.95-15.93C101.38,38.07,103.37,33.94,107.58,32.4Z"/><path class="cls-1" d="M108.48,34.2h0c3-1.11,6.52.06,7.8,2.62l7.94,15.93c1.28,2.56-.15,5.53-3.19,6.64h0c-3,1.11-6.52-.06-7.8-2.62l-7.94-15.93C104,38.28,105.44,35.31,108.48,34.2Z"/></g><g id="Rectangle_20" data-name="Rectangle 20"><path class="cls-1" d="M73.8,92.76h0c5.39-2,11.6.11,13.87,4.65l5.12,10.28c2.27,4.55-.27,9.83-5.67,11.8h0c-5.39,2-11.6-.11-13.86-4.66l-5.13-10.28C65.87,100,68.4,94.73,73.8,92.76Z"/><path class="cls-1" d="M74.7,94.56h0c4.21-1.54,9.06.09,10.83,3.63l5.13,10.28c1.76,3.55-.22,7.68-4.43,9.22h0c-4.22,1.54-9.07-.09-10.84-3.64l-5.12-10.28C68.5,100.22,70.48,96.1,74.7,94.56Z"/></g><g id="Rectangle_21" data-name="Rectangle 21"><path class="cls-1" d="M102.49,82.27h0c5.4-2,11.6.11,13.87,4.65l5.12,10.29c2.27,4.54-.27,9.82-5.66,11.79h0c-5.4,2-11.61-.11-13.87-4.65L96.82,94.07C94.56,89.52,97.1,84.24,102.49,82.27Z"/><path class="cls-1" d="M103.39,84.07h0c4.21-1.54,9.06.09,10.83,3.64L119.35,98c1.77,3.54-.22,7.67-4.43,9.21h0c-4.21,1.54-9.07-.09-10.83-3.63L99,93.28C97.19,89.74,99.17,85.61,103.39,84.07Z"/></g><line id="Line_1" data-name="Line 1" class="cls-1" x1="38.57" y1="25.72" x2="25.26" y2="17.83"/><line id="Line_2" data-name="Line 2" class="cls-1" x1="70.12" y1="16.62" x2="73.48" y2="0.2"/><line id="Line_3" data-name="Line 3" class="cls-1" y1="3.36" y2="3.36"/><g id="Ellipse_25" data-name="Ellipse 25"><ellipse class="cls-1" cx="67.89" cy="28.07" rx="3.3" ry="3.71" transform="translate(25.59 88.14) rotate(-77.31)"/><ellipse class="cls-1" cx="67.89" cy="28.07" rx="1.26" ry="1.47" transform="translate(1.38 59.27) rotate(-47.6)"/></g><g id="Ellipse_26" data-name="Ellipse 26"><ellipse class="cls-1" cx="48.97" cy="34.99" rx="3.3" ry="3.71" transform="translate(4.08 75.08) rotate(-77.31)"/><ellipse class="cls-1" cx="48.97" cy="34.99" rx="1.26" ry="1.47" transform="translate(-9.89 47.55) rotate(-47.6)"/></g></g></g></g></svg>