<svg xmlns="http://www.w3.org/2000/svg" viewBox="0 0 120.61 116.99"><defs><style>.cls-1{fill:none;stroke:#e6e6e6;stroke-miterlimit:10;stroke-width:2px;}</style></defs><title>Google Home</title><g id="Layer_2" data-name="Layer 2"><g id="Layer_1-2" data-name="Layer 1"><g id="Google_Home" data-name="Google Home"><g id="Group_12" data-name="Group 12"><g id="Group_13" data-name="Group 13"><g id="Group_8" data-name="Group 8"><g id="Group_11" data-name="Group 11"><g id="Path_37" data-name="Path 37"><path class="cls-1" d="M21.19,16.88C35.3,5.28,49.47-1.45,52.84,1.83s-5.35,15.36-19.46,27S5.09,47.12,1.72,43.84,7.07,28.48,21.19,16.88Z"/><path class="cls-1" d="M28.14,15.42c-1.5,1.12-3,2.3-4.47,3.51a96.11,96.11,0,0,0-15,15,29.29,29.29,0,0,0-3.54,5.67,6.48,6.48,0,0,0-.6,2.14,8.85,8.85,0,0,0,1.81-.3,31.2,31.2,0,0,0,5.32-2,90,90,0,0,0,14.76-9.18c1.49-1.12,3-2.3,4.47-3.51a96.55,96.55,0,0,0,15-15,29.17,29.17,0,0,0,3.53-5.67A6,6,0,0,0,50,3.92a8.89,8.89,0,0,0-1.8.3,30.89,30.89,0,0,0-5.32,2,88.92,88.92,0,0,0-14.76,9.18m-2.36-2.14C38.26,3.94,49.84-1.1,52.84,1.83c3.37,3.29-5.34,15.36-19.46,27q-2.31,1.89-4.6,3.6c-12.47,9.34-24,14.38-27.06,11.45-3.36-3.29,5.35-15.36,19.47-27C22.72,15.62,24.26,14.42,25.78,13.28Z"/></g><line id="Line_8" data-name="Line 8" class="cls-1" x1="32.83" y1="86.05" x2="96.02" y2="49.11"/><line id="Line_13" data-name="Line 13" class="cls-1" x1="52.05" y1="108.62" x2="115.23" y2="71.68"/><line id="Line_14" data-name="Line 14" class="cls-1" x1="68.1" y1="116.13" x2="118.39" y2="86.73"/></g></g><path id="Path_35" data-name="Path 35" class="cls-1" d="M34,84.74,4.16,43.11"/><path id="Path_36" data-name="Path 36" class="cls-1" d="M96.4,48.79,51.35,3.23"/></g><path id="Path_32" data-name="Path 32" class="cls-1" d="M34.49,84.58a49.32,49.32,0,0,0,8.94,16.19c6.47,7.6,14.73,10.67,18.47,12.28a28,28,0,0,0,8.32,1.84"/><path id="Path_38" data-name="Path 38" class="cls-1" d="M96.07,48.57a65.72,65.72,0,0,1,15.06,12.61c6.47,7.59,7.6,14.83,8.34,18.2s-1.59,7.38-1.59,7.38"/></g></g></g></g></svg>