<svg xmlns="http://www.w3.org/2000/svg" viewBox="0 0 576 922"><defs><style>.cls-1{font-size:98.94px;font-family:MyriadPro-Regular, Myriad Pro;}.cls-1,.cls-2,.cls-4,.cls-5{fill:none;stroke:#e6e6e6;stroke-miterlimit:10;stroke-width:2px;}.cls-3,.cls-4,.cls-5{isolation:isolate;}.cls-4{font-size:31.71px;font-family:SegoeUI, Segoe UI;}.cls-5{font-size:16.4px;font-family:SegoeUI-Light, Segoe UI;font-weight:300;}</style></defs><title>Asset 15</title><g id="Layer_2" data-name="Layer 2"><g id="Layer_1-2" data-name="Layer 1"><text class="cls-1" transform="translate(41.42 711.29) scale(1.08 1)">&lt;/&gt;</text><g id="Google_Home" data-name="Google Home"><g id="Group_12" data-name="Group 12"><g id="Group_13" data-name="Group 13"><g id="Group_8" data-name="Group 8"><g id="Group_11" data-name="Group 11"><g id="Path_37" data-name="Path 37"><path class="cls-2" d="M60.48,92.76C74.6,81.16,88.77,74.42,92.14,77.71s-5.35,15.36-19.46,27S44.39,123,41,119.72,46.37,104.36,60.48,92.76Z"/><path class="cls-2" d="M67.44,91.3c-1.5,1.12-3,2.3-4.48,3.51a96.44,96.44,0,0,0-15,15,28.8,28.8,0,0,0-3.54,5.67,6.23,6.23,0,0,0-.6,2.14,8.85,8.85,0,0,0,1.81-.3,31.14,31.14,0,0,0,5.31-2,89.65,89.65,0,0,0,14.77-9.18c1.49-1.12,3-2.31,4.47-3.51a96.55,96.55,0,0,0,15-15,29.17,29.17,0,0,0,3.53-5.67,6,6,0,0,0,.6-2.14,8.85,8.85,0,0,0-1.81.3,30.32,30.32,0,0,0-5.31,2A88.92,88.92,0,0,0,67.44,91.3m-2.36-2.15c12.48-9.34,24.06-14.37,27.06-11.44,3.37,3.29-5.35,15.36-19.46,27q-2.31,1.89-4.6,3.6C55.61,117.61,44,122.64,41,119.71c-3.36-3.28,5.35-15.35,19.46-26.95C62,91.5,63.56,90.29,65.08,89.15Z"/></g><line id="Line_8" data-name="Line 8" class="cls-2" x1="72.13" y1="161.93" x2="135.31" y2="124.99"/><line id="Line_13" data-name="Line 13" class="cls-2" x1="91.35" y1="184.5" x2="154.53" y2="147.56"/><line id="Line_14" data-name="Line 14" class="cls-2" x1="107.4" y1="192.01" x2="157.69" y2="162.61"/></g></g><path id="Path_35" data-name="Path 35" class="cls-2" d="M73.25,160.62,43.46,119"/><path id="Path_36" data-name="Path 36" class="cls-2" d="M135.69,124.67l-45-45.56"/></g><path id="Path_32" data-name="Path 32" class="cls-2" d="M73.79,160.46a49.18,49.18,0,0,0,8.94,16.18c6.47,7.6,14.72,10.68,18.47,12.29a28,28,0,0,0,8.32,1.84"/><path id="Path_38" data-name="Path 38" class="cls-2" d="M135.37,124.45a65.72,65.72,0,0,1,15.06,12.61c6.47,7.59,7.6,14.83,8.34,18.19s-1.59,7.39-1.59,7.39"/></g></g><g id="Android_Small" data-name="Android Small"><g id="Intersection_1" data-name="Intersection 1"><path class="cls-2" d="M48.31,458.26c-5.94-17.05,1.47-34.57,18-40.61s36.44,1.49,46.71,17Z"/><path class="cls-2" d="M106.17,432.86c-9.68-11.3-25.3-16.28-38.06-11.61S48.73,439,51.57,452.82l54.6-20m6.85,1.75L48.31,458.26c-5.94-17.05,1.47-34.57,18-40.61S102.74,419.14,113,434.61Z"/></g><g id="Rectangle_17" data-name="Rectangle 17"><path class="cls-2" d="M49.08,459.81,114,436.08h0l14.61,29.3c4.24,8.51-.51,18.41-10.63,22.11L89.69,497.83c-10.12,3.7-21.76-.21-26-8.73l-14.6-29.29Z"/><path class="cls-2" d="M54.25,460l56.36-20.6a2.47,2.47,0,0,1,3,1h0l12.81,25.7c3.75,7.52-.45,16.27-9.38,19.53h0L88.79,496c-8.94,3.27-19.22-.18-23-7.71L53,462.62A1.88,1.88,0,0,1,54.25,460Z"/></g><g id="Rectangle_18" data-name="Rectangle 18"><path class="cls-2" d="M40.53,462.93h0c4-1.48,8.7.08,10.4,3.49l8.2,16.45c1.7,3.41-.2,7.37-4.25,8.84h0c-4,1.48-8.7-.08-10.4-3.49l-8.2-16.44C34.58,468.37,36.48,464.41,40.53,462.93Z"/><path class="cls-2" d="M41.43,464.73h0c2.86-1.05,6.16.06,7.36,2.47L57,483.65c1.21,2.41-.14,5.22-3,6.27h0c-2.86,1-6.16-.06-7.36-2.48L38.42,471C37.21,468.58,38.56,465.78,41.43,464.73Z"/></g><g id="Rectangle_19" data-name="Rectangle 19"><path class="cls-2" d="M122.64,432.92h0c4.21-1.55,9.06.08,10.83,3.63l7.95,15.94c1.77,3.54-.22,7.67-4.43,9.21h0c-4.22,1.54-9.07-.09-10.84-3.64l-7.94-15.93C116.44,438.58,118.42,434.46,122.64,432.92Z"/><path class="cls-2" d="M123.54,434.71h0c3-1.1,6.52.07,7.8,2.62l7.94,15.94c1.27,2.55-.15,5.52-3.19,6.63h0c-3,1.11-6.52-.06-7.8-2.62l-7.94-15.93C119.07,438.79,120.5,435.82,123.54,434.71Z"/></g><g id="Rectangle_20" data-name="Rectangle 20"><path class="cls-2" d="M88.86,493.27h0c5.39-2,11.6.11,13.86,4.66l5.13,10.28c2.26,4.54-.27,9.82-5.67,11.79h0c-5.39,2-11.6-.11-13.87-4.65l-5.12-10.28C80.92,500.52,83.46,495.24,88.86,493.27Z"/><path class="cls-2" d="M89.75,495.07h0c4.22-1.54,9.07.09,10.84,3.64L105.71,509c1.77,3.55-.21,7.67-4.42,9.21h0c-4.22,1.54-9.07-.09-10.84-3.63l-5.12-10.28C83.56,500.74,85.54,496.61,89.75,495.07Z"/></g><g id="Rectangle_21" data-name="Rectangle 21"><path class="cls-2" d="M117.55,482.78h0c5.39-2,11.6.12,13.87,4.66l5.12,10.28c2.27,4.54-.27,9.82-5.67,11.79h0c-5.39,2-11.6-.11-13.86-4.65l-5.13-10.28C109.62,490,112.15,484.76,117.55,482.78Z"/><path class="cls-2" d="M118.45,484.58h0c4.21-1.54,9.06.09,10.83,3.64l5.13,10.28c1.76,3.55-.22,7.67-4.43,9.21h0c-4.22,1.54-9.07-.08-10.84-3.63L114,493.8C112.25,490.25,114.23,486.12,118.45,484.58Z"/></g><line id="Line_1" data-name="Line 1" class="cls-2" x1="53.63" y1="426.24" x2="40.31" y2="418.34"/><line id="Line_2" data-name="Line 2" class="cls-2" x1="85.18" y1="417.13" x2="88.54" y2="400.71"/><line id="Line_3" data-name="Line 3" class="cls-2" x1="15.06" y1="403.87" x2="15.06" y2="403.87"/><g id="Ellipse_25" data-name="Ellipse 25"><ellipse class="cls-2" cx="82.95" cy="428.58" rx="3.3" ry="3.71" transform="translate(-353.39 415.37) rotate(-77.31)"/><ellipse class="cls-2" cx="82.95" cy="428.58" rx="1.26" ry="1.47" transform="translate(-289.46 200.82) rotate(-47.6)"/></g><g id="Ellipse_26" data-name="Ellipse 26"><ellipse class="cls-2" cx="64.03" cy="435.5" rx="3.3" ry="3.71" transform="translate(-374.91 402.31) rotate(-77.31)"/><ellipse class="cls-2" cx="64.03" cy="435.5" rx="1.26" ry="1.47" transform="matrix(0.67, -0.74, 0.74, 0.67, -300.73, 189.1)"/></g></g><g id="REST_API" data-name="REST API"><g id="_" data-name=" " class="cls-3"><text class="cls-4" transform="matrix(1.01, 0.2, -0.28, 0.96, 402.9, 101.96)">{ }</text></g><path id="Path_42" data-name="Path 42" class="cls-2" d="M482.21,98.6c-3.56-21.12-31.52-14-31.52-14S442.41,57,423.22,54.84s-35.05,24.69-35.05,24.69-15.74,1.52-22.35,14.31,7.74,19.82,7.74,19.82l67.87,13.76c24.45,5,27.74-3.8,27.74-3.8"/><g id="API" class="cls-3"><text class="cls-5" transform="matrix(1.01, 0.2, -0.28, 0.96, 459.45, 112.24)">API</text></g></g><g id="Alexa"><ellipse id="Ellipse_27-2" data-name="Ellipse 27-2" class="cls-2" cx="457.75" cy="514.12" rx="66.48" ry="18.64"/><path id="Path_40-2" data-name="Path 40-2" class="cls-2" d="M391.28,514.12a47,47,0,0,0,10,37.39h0c11,8.07,35.35,11.3,58.86,10.92s46.06-4.43,53-10.92c13.74-12.92,11.09-30.23,11.09-37.39"/><g id="Ellipse_28" data-name="Ellipse 28"><ellipse class="cls-2" cx="457.75" cy="505.95" rx="5.24" ry="3.27"/><ellipse class="cls-2" cx="457.75" cy="505.95" rx="4.83" ry="2.94"/></g><g id="Ellipse_28-2" data-name="Ellipse 28-2"><ellipse class="cls-2" cx="428.74" cy="514.45" rx="5.24" ry="3.27"/><ellipse class="cls-2" cx="428.74" cy="514.45" rx="4.83" ry="2.94"/></g><g id="Ellipse_28-3" data-name="Ellipse 28-3"><ellipse class="cls-2" cx="457.75" cy="525.57" rx="5.24" ry="3.27"/><ellipse class="cls-2" cx="457.75" cy="525.57" rx="4.83" ry="2.94"/></g><g id="Ellipse_28-4" data-name="Ellipse 28-4"><ellipse class="cls-2" cx="486.76" cy="514.45" rx="5.24" ry="3.27"/><ellipse class="cls-2" cx="486.76" cy="514.45" rx="4.83" ry="2.94"/></g><line id="Line_15" data-name="Line 15" class="cls-2" x1="456.43" y1="503.43" x2="456.43" y2="507.89"/><line id="Line_16" data-name="Line 16" class="cls-2" x1="461.82" y1="505.66" x2="453.73" y2="505.66"/><line id="Line_17" data-name="Line 17" class="cls-2" x1="461.82" y1="525.76" x2="453.73" y2="525.76"/><g id="Ellipse_29" data-name="Ellipse 29"><ellipse class="cls-2" cx="486.76" cy="514.45" rx="2.01" ry="1.31"/><path class="cls-2" d="M486.07,514.12v0Z"/></g><g id="Ellipse_30" data-name="Ellipse 30"><ellipse class="cls-2" cx="428.34" cy="514.45" rx="1.61" ry="1.31"/><ellipse class="cls-2" cx="428.34" cy="514.45" rx="1.21" ry="0.98"/></g><line id="Line_18" data-name="Line 18" class="cls-2" x1="431.16" y1="512.81" x2="425.52" y2="516.08"/></g><rect class="cls-2" x="1" y="1" width="574" height="920"/></g></g></svg>